<?xml version="1.0" encoding="utf-8"?>
<!-- Generator: Adobe Illustrator 16.0.0, SVG Export Plug-In . SVG Version: 6.00 Build 0)  -->
<!DOCTYPE svg PUBLIC "-//W3C//DTD SVG 1.1//EN" "http://www.w3.org/Graphics/SVG/1.1/DTD/svg11.dtd">
<svg version="1.1" id="Layer_1" xmlns="http://www.w3.org/2000/svg" xmlns:xlink="http://www.w3.org/1999/xlink" x="0px" y="0px"
	 width="28px" height="28px" viewBox="0 0 28 28" enable-background="new 0 0 28 28" xml:space="preserve">
<g>
	<circle fill="#03A615" cx="14" cy="14" r="14"/>
	<path fill="#FFFFFF" d="M18.284,20.5c0,0-0.556-0.665-1.017-1.254c2.019-0.572,2.789-1.841,2.789-1.841
		c-0.555,0.37-1.148,0.677-1.772,0.913c-0.771,0.324-1.511,0.541-2.234,0.664c-1.479,0.279-2.836,0.203-3.992-0.015
		c-0.774-0.151-1.532-0.375-2.265-0.666c-0.355-0.139-0.74-0.31-1.125-0.526c-0.046-0.029-0.093-0.045-0.139-0.076
		c-0.023-0.012-0.044-0.027-0.062-0.047c-0.147-0.081-0.292-0.169-0.431-0.264c0,0,0.74,1.238,2.697,1.826
		C10.27,19.805,9.7,20.5,9.7,20.5C6.295,20.393,5,18.148,5,18.148c0-4.984,2.22-9.023,2.22-9.023C9.437,7.454,11.55,7.5,11.55,7.5
		l0.154,0.186C8.93,8.49,7.65,9.713,7.65,9.713s0.339-0.186,0.909-0.449c1.649-0.727,2.959-0.928,3.498-0.975
		c0.093-0.015,0.17-0.03,0.262-0.03c0.94-0.124,2.004-0.155,3.113-0.031c1.465,0.17,3.036,0.603,4.639,1.485
		c0,0-1.217-1.16-3.836-1.965L16.449,7.5c0,0,2.111-0.046,4.33,1.625c0,0,2.22,4.04,2.22,9.023
		C22.999,18.148,21.689,20.393,18.284,20.5L18.284,20.5z M11.118,13.273c-0.878,0-1.572,0.773-1.572,1.718
		c0,0.944,0.71,1.717,1.572,1.717c0.879,0,1.572-0.772,1.572-1.717C12.705,14.046,11.997,13.273,11.118,13.273z M16.743,13.273
		c-0.878,0-1.572,0.773-1.572,1.718c0,0.944,0.71,1.717,1.572,1.717c0.879,0,1.571-0.772,1.571-1.717
		C18.314,14.046,17.622,13.273,16.743,13.273z"/>
</g>
</svg>
