<?xml version="1.0" encoding="utf-8"?>
<!-- Generator: Adobe Illustrator 16.0.0, SVG Export Plug-In . SVG Version: 6.00 Build 0)  -->
<!DOCTYPE svg PUBLIC "-//W3C//DTD SVG 1.1//EN" "http://www.w3.org/Graphics/SVG/1.1/DTD/svg11.dtd">
<svg version="1.1" id="Layer_1" xmlns="http://www.w3.org/2000/svg" xmlns:xlink="http://www.w3.org/1999/xlink" x="0px" y="0px"
	 width="48px" height="48px" viewBox="0 0 48 48" enable-background="new 0 0 48 48" xml:space="preserve">
<path fill="none" d="M0,0h48v48H0V0z"/>
<path fill="#03A615" d="M24.031,14.277c-5.506,5.505-16.096,8.025-16.096,8.025c0.335,3.966,0.928,7.9,1.709,11.815
	c0.46,2.306,1.304,4.466,2.874,6.343c2.82,3.378,6.588,5.509,10.876,6.925c0.417,0.137,0.985,0.092,1.415-0.046
	c2.57-0.823,4.965-1.973,7.133-3.5c2.33-1.638,4.211-3.61,5.313-6.155c1.449-3.355,1.906-6.897,2.307-10.447
	c0.187-1.648,0.351-3.299,0.504-4.95C39.197,22.072,29.293,19.538,24.031,14.277z M26.826,37.104
	c0.104,0.373-0.115,0.759-0.487,0.863c-0.062,0.017-0.126,0.025-0.19,0.025h-4.292c-0.206,0-0.402-0.092-0.536-0.248
	c-0.133-0.156-0.191-0.364-0.157-0.567l0.743-6.226c-1.129-0.708-1.815-1.945-1.819-3.278c0-2.146,1.756-3.888,3.914-3.888
	s3.914,1.742,3.914,3.888c-0.003,1.333-0.689,2.57-1.817,3.278L26.826,37.104L26.826,37.104z"/>
<path fill="#032002" d="M17.94,15.46v-4.247c0-3.32,2.719-6.02,6.06-6.02c3.342,0,6.061,2.7,6.061,6.02v4.209
	c1.547,0.898,3.18,1.653,4.691,2.264v-6.473c0-5.89-4.824-10.68-10.752-10.68c-5.928,0-10.752,4.79-10.752,10.68v6.5
	C14.758,17.105,16.39,16.354,17.94,15.46z"/>
</svg>
