<?xml version="1.0" encoding="utf-8"?>
<!-- Generator: Adobe Illustrator 16.0.0, SVG Export Plug-In . SVG Version: 6.00 Build 0)  -->
<!DOCTYPE svg PUBLIC "-//W3C//DTD SVG 1.1//EN" "http://www.w3.org/Graphics/SVG/1.1/DTD/svg11.dtd">
<svg version="1.1" id="Layer_1" xmlns="http://www.w3.org/2000/svg" xmlns:xlink="http://www.w3.org/1999/xlink" x="0px" y="0px"
	 width="18px" height="18px" viewBox="0 0 18 18" enable-background="new 0 0 18 18" xml:space="preserve">
<g>
	<path fill="none" d="M0,0h18v18H0V0z"/>
	<path fill="#03A615" d="M16.471,8.215L15.21,8c-0.358-0.051-0.651-0.314-0.737-0.666c-0.114-0.36-0.258-0.71-0.429-1.047
		c-0.164-0.31-0.146-0.684,0.047-0.976l0.738-1.047c0.14-0.189,0.12-0.453-0.048-0.618l-0.428-0.428
		c-0.166-0.168-0.43-0.188-0.619-0.048l-1.047,0.738c-0.285,0.214-0.666,0.214-0.976,0.047c-0.329-0.187-0.681-0.331-1.047-0.428
		C10.324,3.424,10.067,3.14,10,2.79L9.786,1.53C9.748,1.297,9.547,1.126,9.31,1.125H8.692c-0.236,0-0.437,0.171-0.476,0.404L8,2.79
		C7.949,3.149,7.686,3.44,7.334,3.528c-0.36,0.114-0.71,0.257-1.047,0.428C5.978,4.12,5.603,4.103,5.311,3.909L4.265,3.17
		C4.076,3.029,3.812,3.05,3.647,3.218L3.219,3.646C3.051,3.811,3.031,4.075,3.171,4.264l0.738,1.047
		c0.214,0.286,0.214,0.666,0.047,0.976C3.769,6.616,3.625,6.968,3.528,7.334C3.425,7.676,3.141,7.933,2.79,8L1.53,8.214
		C1.297,8.252,1.126,8.454,1.125,8.69v0.618c0,0.238,0.167,0.428,0.404,0.476L2.79,10c0.357,0.048,0.643,0.311,0.738,0.666
		c0.119,0.381,0.262,0.714,0.428,1.047c0.167,0.311,0.143,0.689-0.047,0.977l-0.738,1.047c-0.14,0.189-0.12,0.453,0.048,0.617
		l0.428,0.429c0.166,0.167,0.428,0.19,0.618,0.048l1.047-0.738c0.286-0.214,0.666-0.214,0.976-0.047
		c0.333,0.189,0.69,0.333,1.047,0.428C7.676,14.576,7.933,14.859,8,15.21l0.214,1.26c0.039,0.233,0.24,0.404,0.476,0.405h0.618
		c0.236,0,0.437-0.172,0.476-0.404L10,15.21c0.051-0.358,0.314-0.65,0.666-0.737c0.36-0.114,0.711-0.258,1.047-0.429
		c0.31-0.164,0.684-0.146,0.977,0.047l1.047,0.738c0.189,0.144,0.451,0.119,0.617-0.048l0.429-0.428
		c0.168-0.166,0.188-0.43,0.048-0.619l-0.738-1.047c-0.214-0.285-0.214-0.666-0.047-0.976c0.189-0.333,0.333-0.69,0.428-1.047
		c0.104-0.341,0.387-0.598,0.737-0.665l1.261-0.214c0.232-0.038,0.404-0.239,0.404-0.476V8.692
		C16.875,8.456,16.703,8.255,16.471,8.215L16.471,8.215z M9.024,13.282C6.661,13.275,4.747,11.363,4.74,9
		c0.007-2.362,1.92-4.275,4.283-4.282c2.362,0.007,4.276,1.92,4.284,4.282C13.299,11.361,11.386,13.275,9.024,13.282z"/>
</g>
</svg>
