 <svg version="1.0" xmlns="http://www.w3.org/2000/svg" width="700.000000pt" height="110.000000pt" viewBox="0 0 700.000000 110.000000" preserveAspectRatio="xMidYMid meet">
<metadata>
Created by potrace 1.12, written by Peter Selinger 2001-2015
</metadata>
<g transform="translate(0.000000,110.000000) scale(0.100000,-0.100000)" fill="#000000" stroke="none">
<path d="M3952 1010 c-12 -5 -40 -24 -62 -41 l-40 -32 47 -48 c33 -34 59 -51
83 -55 48 -9 79 -26 115 -63 26 -28 30 -41 36 -114 4 -45 3 -129 -2 -187 -9
-101 -8 -106 12 -123 12 -9 31 -17 44 -17 14 0 22 -6 21 -14 -2 -27 19 -17 25
11 4 15 18 51 33 79 15 28 32 80 38 115 10 59 9 71 -16 147 -14 46 -31 93 -38
105 -26 49 -151 181 -200 213 -57 36 -62 37 -96 24z"></path>
<path d="M3434 940 c-73 -53 -125 -134 -147 -230 -29 -127 -30 -148 -12 -256
26 -155 31 -172 68 -190 18 -9 43 -25 56 -35 13 -11 38 -19 55 -19 38 0 53 -9
57 -34 6 -28 73 -51 118 -40 20 6 35 15 34 22 -2 7 2 12 7 12 6 0 10 4 10 9 0
6 -28 16 -62 22 -68 13 -92 32 -149 116 -35 50 -52 156 -43 267 7 90 16 116
53 166 17 22 45 58 62 80 64 84 54 140 -25 140 -31 0 -53 -8 -82 -30z"></path>
<path d="M2482 818 c-9 -9 -12 -85 -12 -304 0 -254 2 -293 16 -305 11 -9 20
-10 32 -2 15 9 17 41 17 314 0 297 0 304 -20 307 -11 1 -26 -3 -33 -10z"></path>
<path d="M5014 819 c-3 -6 -6 -144 -6 -307 0 -290 1 -297 21 -306 42 -18 51 6
51 137 0 89 4 133 17 167 9 25 17 46 19 48 1 2 32 -2 68 -9 95 -16 100 -26
100 -196 1 -117 3 -137 18 -147 14 -8 21 -7 34 6 15 14 17 38 15 165 l-2 148
-29 26 c-17 14 -30 31 -30 37 0 19 -36 32 -89 32 -40 0 -52 -4 -61 -20 -14
-27 -26 -25 -46 6 -13 20 -17 45 -15 111 1 53 -3 91 -10 99 -14 17 -45 18 -55
3z"></path>
<path d="M5981 821 c-11 -7 -14 -62 -12 -302 1 -317 4 -334 50 -310 21 12 21
17 21 304 0 292 -3 317 -34 317 -6 0 -17 -4 -25 -9z"></path>
<path d="M6188 819 c-16 -9 -18 -34 -17 -299 1 -272 2 -290 20 -306 18 -16 21
-16 35 -2 13 13 15 58 16 308 0 236 -2 294 -13 301 -17 11 -20 11 -41 -2z"></path>
<path d="M962 748 c-37 -37 5 -66 96 -66 41 -1 80 -6 88 -13 11 -9 14 -54 14
-230 0 -208 1 -219 20 -229 14 -7 26 -7 39 -1 17 10 19 24 16 226 -1 160 2
220 11 233 9 13 33 18 95 22 62 4 84 9 92 22 8 12 7 21 -2 32 -12 14 -45 16
-235 16 -159 0 -225 -3 -234 -12z"></path>
<path d="M2196 744 c-3 -9 -6 -36 -6 -62 0 -71 -13 -80 -111 -68 -80 9 -82 9
-100 -15 l-18 -24 -24 23 c-17 16 -34 22 -53 20 l-29 -3 0 -199 c0 -178 2
-200 17 -210 14 -8 22 -7 35 7 15 15 17 33 14 122 -3 94 0 110 22 158 l25 54
98 8 c132 10 134 7 131 -154 l-2 -117 37 -38 c34 -35 42 -39 94 -40 44 -1 59
3 68 16 19 30 -4 53 -57 56 -25 2 -50 8 -55 15 -5 7 -12 59 -15 115 -5 95 -3
106 15 124 16 16 29 19 59 15 44 -6 62 9 57 45 -3 20 -10 23 -53 26 -63 4 -75
15 -75 67 0 61 -8 75 -40 75 -16 0 -30 -7 -34 -16z"></path>
<path d="M4570 714 l-52 -49 6 -75 c4 -41 12 -80 18 -87 19 -24 77 -27 119 -7
48 24 45 38 -10 42 -55 4 -70 31 -50 94 l14 43 82 10 c55 7 88 16 100 27 28
28 3 41 -91 46 l-84 4 -52 -48z"></path>
<path d="M4816 675 c-14 -21 -15 -29 -5 -41 17 -21 53 -13 57 12 2 11 -6 28
-16 37 -18 17 -20 16 -36 -8z"></path>
<path d="M1656 611 c-14 -15 -16 -30 -12 -73 8 -66 -6 -181 -27 -229 -16 -36
-16 -37 17 -75 30 -35 36 -37 58 -27 l25 11 2 192 c2 192 -3 220 -34 220 -6 0
-20 -9 -29 -19z"></path>
<path d="M1382 608 c-8 -8 -12 -58 -12 -160 l0 -149 50 -49 c40 -41 55 -50 84
-50 55 0 86 16 86 44 0 21 -5 24 -54 30 -90 12 -91 13 -93 176 -2 139 -8 170
-37 170 -7 0 -17 -5 -24 -12z"></path>
<path d="M2752 604 c-12 -8 -22 -21 -22 -27 0 -7 -10 -17 -22 -22 -31 -14 -49
-91 -41 -180 6 -77 16 -105 38 -105 7 0 24 -13 37 -30 23 -29 25 -29 140 -34
97 -5 120 -3 133 10 18 18 18 20 5 45 -10 17 -22 19 -120 19 -121 0 -142 9
-156 66 -13 52 2 59 134 64 68 3 126 10 132 16 6 6 10 35 8 65 -2 44 -7 56
-25 65 -12 6 -32 23 -43 37 -20 25 -27 27 -99 27 -53 0 -83 -5 -99 -16z m185
-70 c10 -25 -20 -45 -78 -50 -63 -6 -102 10 -107 44 -3 21 -1 22 88 22 73 0
92 -3 97 -16z"></path>
<path d="M5556 601 c-9 -10 -16 -24 -14 -32 2 -7 -5 -13 -16 -14 -21 0 -29
-12 -47 -73 -10 -34 -10 -53 -1 -87 6 -24 9 -50 6 -58 -7 -20 13 -67 30 -67 8
0 25 -14 39 -31 l24 -30 116 -2 c96 -2 119 1 133 14 12 13 14 21 5 37 -10 19
-21 21 -115 21 -57 1 -111 3 -119 7 -9 3 -25 24 -37 46 -20 38 -20 41 -4 59
15 16 32 19 128 19 141 0 158 9 149 78 -7 56 -19 75 -44 67 -15 -5 -19 -1 -19
20 0 34 -31 45 -124 45 -59 0 -76 -4 -90 -19z m194 -70 c0 -31 -27 -44 -94
-45 -50 -1 -69 3 -85 18 -42 38 -28 46 79 46 91 0 100 -2 100 -19z"></path>
<path d="M4740 462 c-28 -23 -19 -42 20 -42 40 0 55 -29 40 -78 -18 -54 -33
-62 -125 -62 -70 0 -85 -3 -101 -21 -18 -20 -18 -21 1 -35 22 -16 34 -18 134
-14 69 2 78 5 118 38 23 20 45 42 48 51 10 25 -7 151 -22 167 -20 20 -86 18
-113 -4z"></path>
<path d="M4061 321 c-15 -27 -14 -52 2 -48 8 1 11 -9 9 -30 -3 -39 14 -43 30
-8 8 17 8 37 2 62 -11 43 -28 52 -43 24z"></path>
<path d="M4525 320 c-7 -11 12 -50 24 -50 15 0 33 29 27 45 -6 17 -41 20 -51
5z"></path>
<path d="M4005 240 c-3 -5 -1 -10 4 -10 6 0 11 5 11 10 0 6 -2 10 -4 10 -3 0
-8 -4 -11 -10z"></path>
<path d="M3980 187 c0 -20 27 -40 45 -33 20 7 19 22 -2 30 -10 3 -24 9 -30 12
-7 3 -13 -1 -13 -9z"></path>
<path d="M3692 151 c-10 -6 -11 -17 -5 -42 8 -28 14 -35 40 -37 17 -2 48 4 68
13 37 15 37 16 20 35 -10 11 -34 24 -54 30 -43 12 -52 12 -69 1z"></path>
</g>
</svg>