<svg xmlns="http://www.w3.org/2000/svg" preserveAspectRatio="xMidYMid meet" viewBox="0 0 700 110"><defs><linearGradient x1=".0046285%" y1="49.9990596%" x2="100%" y2="49.9990596%" id="a"><stop stop-color="#00B8C4" offset="0%"/><stop stop-color="#00EFFF" offset="100%"/></linearGradient><linearGradient x1="45.9907807%" y1="49.9990596%" x2="54.0095905%" y2="50%" id="b"><stop stop-color="#00EFFF" offset="0%"/><stop stop-color="#49F4FF" offset="100%"/></linearGradient></defs><g fill-rule="nonzero" fill="none"><path d="M54.6333333 0v96.9833333c-.6587049-.0086542-1.2966174-.2328082-1.8169271-.6384442L28.2551857 75.5735607c-.6618286-.6144067-1.0285048-1.4848925-1.0065776-2.3896057V21.7435878c-.0259509-.8975757.3476722-1.7601134 1.0192961-2.3531232L52.9018018.65850966C53.3847469.24286022 53.9972971.00990447 54.6333333 0z" fill="url(#a)" transform="matrix(-1 0 0 1 420.820242 .25)"/><path d="M27.3859928 0v96.7082406c-.6587049-.0086297-1.2966174-.232148-1.8169271-.6366334L1.00784518 75.3591966C.34601662 74.7465327-.0206596 73.878516.00126756 72.976369V21.6819122c-.02595088-.8950297.34767228-1.7551208 1.01929611-2.3464485L25.6544613.6566418C26.1374064.24217134 26.7499566.00987636 27.3859928 0z" fill="url(#b)" transform="translate(338.939568 .25)"/><path d="M364.1510296 27.0281585c1.2994972-.9931002 3.0924515-.9931002 4.3919487 0l.0370658.0291177 14.4015067 11.6286378c.0344107.0106107.0725205.0056386.1037221-.0152442l.1042432-.0646286 14.7356791-8.4401208.0316254-.0205721c2.1166058-1.3575798 5.21756-.1208821 5.3296223 2.4641415l.0031254.1449917-.0009801 45.9787542c-.0307788.9338669-.4651903 1.8069732-1.1484465 2.355227l-33.406981 28.4989883-.1595389.087262c-1.4609407.799083-3.3380265.76796-4.6088667-.107432l-.0751461-.051763-33.42534146-28.5272403c-.64258097-.5781998-1.0263431-1.4025821-1.05803254-2.3363369V32.7544815c0-2.6340107 3.06843147-3.9511065 5.2183309-2.6834641l.14601527.0913331 14.74285033 8.4436694.1042805.0646499c.0260549.0174382.056927.0237817.077804.0259998l.019719.0006637zM349.623235 69.9263333l-15.442 9.564 30.335 25.8909997.0022085-23.0975436c-.0629489-.037238-.1250535-.0765436-.1862201-.1179168l-.1722169-.1239028-.0584922-.0466961-14.4782793-12.0689404zm33.452.002L368.6107685 81.995006l-.0588133.0469638c-.0798021.0609862-.1614651.1182273-.2447604.1717233l-.0029598 23.0686399 30.217-25.7759997-15.446-9.578zm-16.7485899-40.0781886h-.0114899l-14.4335138 11.6679442a3.68063954 3.68063954 0 01-.0345781.0260261l-.3146533.2523531-.0007056 25.0952807 14.7579732 12.3031061.0299376.0161794c.0235903.0078905.049141.0078905.0727313 0l.0271584-.0154655 14.7523285-12.3031061V41.7907563l-.2545984-.205423-.135453-.098287-14.3686274-11.6088553-.0291921-.0159296c-.0224047-.0088226-.0443983-.0121167-.0573174-.0121167zm33.434477 3.3665633l-14.8024249 8.4776626-.0720128.045874c-.0612392.036955-.1232719.0719329-.1860168.104933l-.0014326 24.9041557 15.061 9.339.0008871-42.8716253zm-66.82717338-.0042838l-.00171372 42.8659091 15.072-9.335-.0001854-24.8972145c-.0519682-.02731-.1034533-.0559727-.1544068-.0859898l-.1781712-.1119844.0717634.0461887-14.80928628-8.4819091z" fill="#6800FF"/><path d="M107.1935503 86.315508c1.4545454 0 2.2245989-.855615 2.2245989-2.2245989v-49.882353h11.9786096c1.4545455 0 2.224599-.7700534 2.224599-2.2245989v-6.7593583c0-1.3689839-.7700535-2.2245989-2.224599-2.2245989H86.31654493c-1.36898396 0-2.22459893.855615-2.22459893 2.2245989v6.7593583c0 1.4545455.85561497 2.2245989 2.22459893 2.2245989H98.2951546v49.882353c0 1.3689839.7700534 2.2245989 2.2245989 2.2245989h6.6737968zM143.8994326 87c10.1818182 0 18.566845-8.2994652 18.566845-18.5668449V45.7593583c0-1.368984-.855615-2.2245989-2.3101605-2.2245989h-6.6737968c-1.3689839 0-2.2245989.8556149-2.2245989 2.2245989v22.6737968c0 4.0213904-3.3368984 7.4438502-7.3582888 7.4438502-4.1069518 0-7.4438502-3.4224598-7.4438502-7.4438502V45.7593583c0-1.368984-.855615-2.2245989-2.224599-2.2245989h-6.6737968c-1.3689839 0-2.2245989.8556149-2.2245989 2.2245989v22.6737968C125.3325877 78.7005348 133.632053 87 143.8994326 87zm35.0802139-.684492c1.368984 0 2.224599-.855615 2.224599-2.2245989V61.1604278c0-4.1069519 3.2513365-7.0160428 7.3582885-7.0160428h2.994653c1.454545 0 2.31016-.7700534 2.31016-2.2245989v-6.1604278c0-1.368984-.855615-2.2245989-2.31016-2.2245989h-3.764706c-3.336899 0-6.4171125.7700534-8.898396 2.7379679v-.7700535c0-1.2834225-.6844919-1.9679144-1.8823529-1.9679144h-4.7058824c-1.3689839 0-2.2245989.8556149-2.2245989 2.2245989v38.3315508c0 1.3689839.855615 2.2245989 2.2245989 2.2245989h6.6737968zm42.9518715 0c1.454546 0 2.224599-.855615 2.224599-2.2245989v-6.7593583c0-1.4545455-.770053-2.2245989-2.224599-2.2245989h-5.219251c-3.080214 0-5.304813-2.3101605-5.304813-5.3903744V53.2887701h10.951872c1.368984 0 2.139037-.7700535 2.139037-2.1390375v-5.4759358c0-1.368984-.770053-2.1390374-2.139037-2.1390374h-10.951872V32.1550802c0-1.3689839-.855615-2.2245989-2.224599-2.2245989h-6.759358c-1.368984 0-2.224599.855615-2.224599 2.2245989V69.631016c0 11.0374332 6.245989 16.684492 16.171123 16.684492h5.561497zm24.898396 0c1.368984 0 2.224599-.855615 2.224599-2.2245989v-6.7593583c0-1.4545455-.513369-2.2245989-1.796792-2.2245989h-.941176c-2.481283 0-4.192513-1.71123-4.192513-4.6203209V28.6470588c0-1.3689839-.855615-2.2245989-2.224599-2.2245989h-6.759359c-1.368984 0-2.224599.855615-2.224599 2.2245989V70.315508c0 11.2085562 4.705883 16 15.144385 16h.770054zM276.519753 87c5.048129 0 11.037434-1.540107 16.513369-5.8181818 1.197861-.855615 1.283423-1.9679145.342246-3.1657754l-3.764705-4.4491979c-.855615-1.1122994-1.882353-1.1978609-3.080214-.513369-2.566845 1.7967915-5.989305 3.4224599-9.839573 3.4224599-4.62032 0-9.411764-2.5668449-11.46524-8.0427807h30.032085c1.454546 0 2.310161-.7700535 2.224599-2.224599-.855615-14.3743315-9.839572-23.3582887-21.73262-23.3582887-12.320856 0-21.989305 9.4973262-21.989305 21.6470588C253.760395 76.7326203 263.514406 87 276.519753 87zm8.898396-27.1229947h-20.106952c.855615-4.5347593 5.048129-7.7860962 10.181819-7.7860962 5.304812 0 9.069518 3.5935829 9.925133 7.7860962zM453.732013 87c10.94752 0 18.924782-8.1469911 18.924782-18.5004589 0-11.6264351-10.183739-17.0577625-15.699931-19.6036972-5.176734-2.5459347-10.353468-4.497818-10.353468-9.0805005 0-3.818902 3.224851-6.6194302 7.637804-6.6194302 2.376206 0 4.752412.7637804 6.874024 1.9518833 1.272967.5940514 2.206477.3394579 2.970257-.7637804l3.224851-4.9221405c.76378-1.1032383.509187-2.2064767-.678916-2.8853926-3.224851-1.9518833-7.468075-3.4794441-11.965893-3.5643086-10.523197-.339458-18.924781 6.4497012-19.433968 16.6334401-.424323 8.2318555 4.837276 13.4934539 12.220486 17.4820849 6.364837 3.3097152 13.238861 5.6859209 13.238861 11.2869772 0 3.8189021-3.139986 6.5345658-7.55294 6.5345658-3.139986 0-6.958888-1.3578319-11.032384-4.2432245-1.272967-.8486449-2.291341-.5940515-3.055121.6789159l-3.39458 5.9405143c-.678916 1.1881029-.424322 2.2913413.933509 3.2248506C442.190443 84.7086588 447.876364 87 453.732013 87zm35.388493-.6789159c1.357832 0 2.206477-.8486449 2.206477-2.2064768V61.7952464c0-4.0734955 3.394579-7.4680751 7.468075-7.4680751 4.073495 0 7.468075 3.3945796 7.468075 7.4680751v22.3193609c0 1.3578319.76378 2.2064768 2.206477 2.2064768h6.704294c1.357832 0 2.206477-.8486449 2.206477-2.2064768V61.7952464c0-10.2686033-8.31672-18.5853234-18.585323-18.5853234-2.800528 0-5.261599.7637805-7.468075 1.9518833V29.1224177c0-1.3578319-.848645-2.2064768-2.206477-2.2064768h-6.789159c-1.357832 0-2.206477.8486449-2.206477 2.2064768v54.9921896c0 1.3578319.848645 2.2064768 2.206477 2.2064768h6.789159zM545.385663 87c5.007005 0 10.947519-1.5275608 16.378847-5.7707853 1.188102-.8486449 1.272967-1.9518833.339457-3.1399862l-3.734037-4.4129535c-.848645-1.1032383-1.867019-1.1881028-3.055122-.5091869-2.545934 1.7821543-5.940514 3.3945796-9.759416 3.3945796-4.582683 0-9.335094-2.5459347-11.371842-7.9772621h29.787436c1.442697 0 2.291341-.7637804 2.206477-2.2064767-.848645-14.2572344-9.759416-23.1680059-21.555581-23.1680059-12.220486 0-21.810174 9.4199585-21.810174 21.4707161C522.811708 76.8162612 532.48626 87 545.385663 87zm8.825907-26.9020434h-19.943155c.848645-4.497818 5.007005-7.7226686 10.098874-7.7226686 5.261598 0 8.995636 3.5643086 9.844281 7.7226686zm34.96417 26.2231275c1.357832 0 2.206477-.8486449 2.206477-2.2064768v-6.7042947c0-1.4426963-.509187-2.2064767-1.782155-2.2064767h-.933509c-2.46107 0-4.15836-1.6972898-4.15836-4.5826825V29.1224177c0-1.3578319-.848645-2.2064768-2.206477-2.2064768h-6.704295c-1.357831 0-2.206476.8486449-2.206476 2.2064768v41.3290067c0 11.1172482 4.667547 15.8696597 15.021014 15.8696597h.763781zm24.525838 0c1.357831 0 2.206476-.8486449 2.206476-2.2064768v-6.7042947c0-1.4426963-.509187-2.2064767-1.782154-2.2064767h-.933509c-2.461071 0-4.15836-1.6972898-4.15836-4.5826825V29.1224177c0-1.3578319-.848645-2.2064768-2.206477-2.2064768h-6.704295c-1.357832 0-2.206477.8486449-2.206477 2.2064768v41.3290067c0 11.1172482 4.667547 15.8696597 15.021015 15.8696597h.763781z" fill="#000000"/></g></svg>