<?xml version="1.0" encoding="utf-8"?>
<!-- Generator: Adobe Illustrator 16.0.0, SVG Export Plug-In . SVG Version: 6.00 Build 0)  -->
<!DOCTYPE svg PUBLIC "-//W3C//DTD SVG 1.1//EN" "http://www.w3.org/Graphics/SVG/1.1/DTD/svg11.dtd">
<svg version="1.1" id="Layer_1" xmlns="http://www.w3.org/2000/svg" xmlns:xlink="http://www.w3.org/1999/xlink" x="0px" y="0px"
	 width="80px" height="80px" viewBox="0 0 80 80" enable-background="new 0 0 80 80" xml:space="preserve">
<g>
	<path fill="none" d="M0,0h80v80H0V0z"/>
	<path fill="#0A6E39" d="M78.5,13v3h-77v-3H78.5z M8.5,10.5C7.671,10.5,7,9.829,7,9s0.671-1.5,1.5-1.5S10,8.171,10,9
		S9.329,10.5,8.5,10.5z M13.5,10.5C12.671,10.5,12,9.829,12,9s0.671-1.5,1.5-1.5S15,8.171,15,9S14.329,10.5,13.5,10.5z M18.5,10.5
		C17.671,10.5,17,9.829,17,9s0.671-1.5,1.5-1.5S20,8.171,20,9S19.329,10.5,18.5,10.5z M10.094,22.5v14h59.812v-14H10.094z
		 M9.063,19.5h61.875c1.14,0,2.063,0.895,2.063,2v16c0,1.105-0.923,2-2.063,2H9.063C7.923,39.5,7,38.605,7,37.5v-16
		C7,20.395,7.923,19.5,9.063,19.5z M10,47.5v7h13v-7H10z M9,44.5h15c1.104,0,2,0.896,2,2v9c0,1.104-0.896,2-2,2H9
		c-1.104,0-2-0.896-2-2v-9C7,45.396,7.896,44.5,9,44.5z M34,47.5v7h13v-7H34z M33,44.5h15c1.104,0,2,0.896,2,2v9
		c0,1.104-0.896,2-2,2H33c-1.104,0-2-0.896-2-2v-9C31,45.396,31.896,44.5,33,44.5z"/>
	<path fill="#0A6E39" d="M56.5,44.5h16c0.828,0,1.5,0.672,1.5,1.5l0,0c0,0.828-0.672,1.5-1.5,1.5h-16c-0.828,0-1.5-0.672-1.5-1.5
		l0,0C55,45.172,55.672,44.5,56.5,44.5z"/>
	<path fill="#0A6E39" d="M56.5,44.5L56.5,44.5c0.828,0,1.5,0.672,1.5,1.5v4c0,0.828-0.672,1.5-1.5,1.5l0,0
		c-0.828,0-1.5-0.672-1.5-1.5v-4C55,45.172,55.672,44.5,56.5,44.5z"/>
	<path fill="#0A6E39" d="M1.5,63.5h46c0.828,0,1.5,0.672,1.5,1.5l0,0c0,0.828-0.672,1.5-1.5,1.5h-46C0.671,66.5,0,65.828,0,65l0,0
		C0,64.172,0.671,63.5,1.5,63.5z"/>
	<path fill="#0A6E39" d="M78.5,1.5L78.5,1.5C79.328,1.5,80,2.171,80,3v43c0,0.828-0.672,1.5-1.5,1.5l0,0c-0.828,0-1.5-0.672-1.5-1.5
		V3C77,2.171,77.672,1.5,78.5,1.5z"/>
	<path fill="#0A6E39" d="M1.5,1.5L1.5,1.5C2.329,1.5,3,2.171,3,3v62c0,0.828-0.671,1.5-1.5,1.5l0,0C0.671,66.5,0,65.828,0,65V3
		C0,2.171,0.671,1.5,1.5,1.5z"/>
	<path fill="#0A6E39" d="M1.5,1.5h77C79.328,1.5,80,2.171,80,3l0,0c0,0.829-0.672,1.5-1.5,1.5h-77C0.671,4.5,0,3.829,0,3l0,0
		C0,2.171,0.671,1.5,1.5,1.5z"/>
	<path fill="#0A6E39" d="M66.5,78.5C59.044,78.5,53,72.456,53,65s6.044-13.5,13.5-13.5S80,57.544,80,65S73.956,78.5,66.5,78.5z
		 M66.5,75.5C72.299,75.5,77,70.799,77,65s-4.701-10.5-10.5-10.5S56,59.201,56,65S60.701,75.5,66.5,75.5z"/>
	<path fill="#0A6E39" d="M69.439,59.818l4.213,4.213l-0.539,1.677c-0.166,0.518-0.721,0.802-1.237,0.636
		c-0.148-0.048-0.284-0.131-0.394-0.24l-4.164-4.164c-0.596-0.576-0.613-1.525-0.037-2.121c0.575-0.596,1.525-0.613,2.121-0.037
		C69.414,59.793,69.427,59.806,69.439,59.818L69.439,59.818z"/>
	<path fill="#0A6E39" d="M67.318,68.061l3.851-3.851c0.488-0.489,1.28-0.489,1.769-0.001c0.143,0.141,0.248,0.314,0.309,0.505
		l0.402,1.261l-4.209,4.207c-0.576,0.596-1.525,0.613-2.121,0.037s-0.613-1.525-0.037-2.121
		C67.293,68.086,67.306,68.073,67.318,68.061L67.318,68.061z"/>
	<path fill="#0A6E39" d="M60.5,63.5h12c0.828,0,1.5,0.672,1.5,1.5l0,0c0,0.828-0.672,1.5-1.5,1.5h-12c-0.828,0-1.5-0.672-1.5-1.5
		l0,0C59,64.172,59.672,63.5,60.5,63.5z"/>
</g>
</svg>
