<?xml version="1.0" encoding="utf-8"?>
<!-- Generator: Adobe Illustrator 16.0.0, SVG Export Plug-In . SVG Version: 6.00 Build 0)  -->
<!DOCTYPE svg PUBLIC "-//W3C//DTD SVG 1.1//EN" "http://www.w3.org/Graphics/SVG/1.1/DTD/svg11.dtd">
<svg version="1.1" id="Layer_1" xmlns="http://www.w3.org/2000/svg" xmlns:xlink="http://www.w3.org/1999/xlink" x="0px" y="0px"
	 width="80px" height="80px" viewBox="0 0 80 80" enable-background="new 0 0 80 80" xml:space="preserve">
<g>
	<path fill="#D8D8D8" fill-opacity="0" d="M0,0h80v80H0V0z"/>
	<path fill="#03A615" d="M3,7v61h74V7H3z M2.22,4h75.559C79.006,4,80,4.895,80,6v60c0,1.105-0.994,2-2.221,2H2.22
		C0.994,68,0,67.105,0,66V6C0,4.895,0.994,4,2.22,4z"/>
	<path fill="#03A615" d="M78.5,15.5v3h-77v-3H78.5z M35.5,65h9c0.828,0,1.5,0.672,1.5,1.5S45.328,68,44.5,68h-9
		c-0.829,0-1.5-0.672-1.5-1.5S34.671,65,35.5,65z M8.5,13C7.671,13,7,12.329,7,11.5S7.671,10,8.5,10s1.5,0.671,1.5,1.5
		S9.329,13,8.5,13z M13.5,13c-0.829,0-1.5-0.671-1.5-1.5s0.671-1.5,1.5-1.5s1.5,0.671,1.5,1.5S14.329,13,13.5,13z M18.5,13
		c-0.829,0-1.5-0.671-1.5-1.5s0.671-1.5,1.5-1.5s1.5,0.671,1.5,1.5S19.329,13,18.5,13z"/>
	<path fill="#03A615" d="M10.094,25v14h59.812V25H10.094z M9.063,22h61.875C72.077,22,73,22.895,73,24v16c0,1.105-0.923,2-2.063,2
		H9.063C7.923,42,7,41.105,7,40V24C7,22.895,7.923,22,9.063,22z M40,77.5c-6.075,0-11-4.925-11-11s4.925-11,11-11s11,4.925,11,11
		S46.075,77.5,40,77.5z M40,74.5c4.418,0,8-3.582,8-8s-3.582-8-8-8c-4.418,0-8,3.582-8,8S35.582,74.5,40,74.5z M10,50v7h13v-7H10z
		 M9,47h15c1.104,0,2,0.896,2,2v9c0,1.104-0.896,2-2,2H9c-1.104,0-2-0.896-2-2v-9C7,47.896,7.896,47,9,47z M57,50v7h13v-7H57z
		 M56,47h15c1.104,0,2,0.896,2,2v9c0,1.104-0.896,2-2,2H56c-1.104,0-2-0.896-2-2v-9C54,47.896,54.896,47,56,47z M33.5,50v2.688
		C33.5,53.412,32.828,54,32,54s-1.5-0.588-1.5-1.313v-4.375C30.5,47.588,31.171,47,32,47h16c0.829,0,1.5,0.588,1.5,1.313v4.375
		C49.5,53.412,48.828,54,48,54s-1.5-0.588-1.5-1.313V50H33.5z M2.5,65h21c0.829,0,1.5,0.672,1.5,1.5S24.329,68,23.5,68h-21
		C1.671,68,1,67.328,1,66.5S1.671,65,2.5,65z M56.5,65h21c0.828,0,1.5,0.672,1.5,1.5S78.328,68,77.5,68h-21
		c-0.828,0-1.5-0.672-1.5-1.5S55.672,65,56.5,65z"/>
</g>
</svg>
