<?xml version="1.0" encoding="utf-8"?>
<!-- Generator: Adobe Illustrator 16.0.0, SVG Export Plug-In . SVG Version: 6.00 Build 0)  -->
<!DOCTYPE svg PUBLIC "-//W3C//DTD SVG 1.1//EN" "http://www.w3.org/Graphics/SVG/1.1/DTD/svg11.dtd">
<svg version="1.1" id="Layer_1" xmlns="http://www.w3.org/2000/svg" xmlns:xlink="http://www.w3.org/1999/xlink" x="0px" y="0px"
	 width="48px" height="48px" viewBox="0 0 48 48" enable-background="new 0 0 48 48" xml:space="preserve">
<title>Icon/t-closeorder-48</title>
<desc>Created with Sketch.</desc>
<g id="Icon_x2F_t-closeorder-48">
	<rect id="fon-fon-fon" fill="#D8D8D8" fill-opacity="0" width="48" height="48"/>
	<path id="krug" opacity="0.1" fill="#03A615" d="M24,0L24,0c13.255,0,24,10.745,24,24l0,0c0,13.255-10.745,24-24,24l0,0
		C10.745,48,0,37.255,0,24l0,0C0,10.745,10.745,0,24,0z"/>
	<g id="Icon_x2F_80_x2F_error-80-ordercancel" transform="translate(9.000000, 9.000000)">
		<rect id="ico-zone" fill="#03A615" fill-opacity="0" width="30" height="30"/>
		<path id="krugi" fill="#03A615" d="M28.99,20.423c0.639,0.974,1.01,2.138,1.01,3.39C30,27.229,27.23,30,23.813,30
			c-1.252,0-2.416-0.371-3.39-1.01C18.741,29.643,16.912,30,15,30C6.716,30,0,23.284,0,15S6.716,0,15,0
			c3.979,0,7.793,1.58,10.606,4.394C28.42,7.207,30,11.021,30,15C30,16.912,29.643,18.741,28.99,20.423z M28.097,19.348
			C28.551,17.98,28.799,16.52,28.8,15c0-7.622-6.179-13.8-13.8-13.8C7.378,1.2,1.2,7.378,1.2,15c0,7.621,6.178,13.8,13.8,13.8
			c1.52-0.001,2.98-0.249,4.348-0.703c-1.066-1.112-1.723-2.622-1.723-4.284c0-3.417,2.77-6.188,6.188-6.188
			C25.475,17.625,26.984,18.281,28.097,19.348z M23.813,28.875c2.796,0,5.063-2.267,5.063-5.063s-2.267-5.063-5.063-5.063
			s-5.063,2.267-5.063,5.063S21.017,28.875,23.813,28.875z"/>
		<path id="krestk" fill="#03A615" d="M23.814,23.018l1.59-1.59c0.221-0.221,0.576-0.221,0.796,0c0.22,0.219,0.22,0.575,0,0.795
			l-1.591,1.591l1.591,1.591c0.22,0.221,0.22,0.576,0,0.796s-0.575,0.22-0.796,0l-1.59-1.591L22.223,26.2
			c-0.22,0.22-0.576,0.22-0.795,0c-0.221-0.22-0.221-0.575,0-0.796l1.59-1.591l-1.59-1.591c-0.221-0.22-0.221-0.576,0-0.795
			c0.219-0.221,0.575-0.221,0.795,0L23.814,23.018z"/>
		<path id="strelochki" fill="#03A615" d="M19.2,18.593c0,0.331-0.269,0.6-0.601,0.6H6.849l2.576,2.576
			c0.156,0.15,0.218,0.374,0.164,0.583c-0.055,0.21-0.219,0.374-0.429,0.429c-0.209,0.056-0.433-0.007-0.583-0.163l-3.6-3.601
			c-0.234-0.233-0.234-0.614,0-0.849l3.6-3.6c0.235-0.228,0.61-0.224,0.841,0.007s0.234,0.606,0.007,0.841l-2.576,2.575H18.6
			C18.932,17.992,19.2,18.262,19.2,18.593z M25.2,11.393c0,0.159-0.063,0.312-0.176,0.424l-3.601,3.6
			c-0.234,0.228-0.609,0.224-0.841-0.007c-0.231-0.231-0.234-0.606-0.007-0.841l2.575-2.576H11.4c-0.331,0-0.6-0.269-0.6-0.6
			c0-0.331,0.269-0.6,0.6-0.6h11.751l-2.575-2.576c-0.228-0.235-0.225-0.609,0.007-0.841s0.606-0.235,0.841-0.008l3.601,3.6
			C25.137,11.081,25.2,11.233,25.2,11.393z"/>
	</g>
</g>
</svg>
