<?xml version="1.0" encoding="utf-8"?>
<!-- Generator: Adobe Illustrator 16.0.0, SVG Export Plug-In . SVG Version: 6.00 Build 0)  -->
<!DOCTYPE svg PUBLIC "-//W3C//DTD SVG 1.1//EN" "http://www.w3.org/Graphics/SVG/1.1/DTD/svg11.dtd">
<svg version="1.1" id="Layer_1" xmlns="http://www.w3.org/2000/svg" xmlns:xlink="http://www.w3.org/1999/xlink" x="0px" y="0px"
	 width="48px" height="48px" viewBox="0 0 48 48" enable-background="new 0 0 48 48" xml:space="preserve">
<title>Icon/t-data48</title>
<desc>Created with Sketch.</desc>
<path id="circle" opacity="0.1" fill="#03A615" enable-background="new    " d="M24,0L24,0c13.255,0,24,10.745,24,24l0,0
	c0,13.255-10.745,24-24,24l0,0C10.745,48,0,37.255,0,24l0,0C0,10.745,10.745,0,24,0z"/>
<g id="misha-krug">
	<path fill="#03A615" d="M24,39c-8.271,0-15-6.729-15-15c0-8.271,6.729-15,15-15c8.271,0,15,6.729,15,15C39,32.271,32.271,39,24,39z
		 M24,10.2c-7.609,0-13.8,6.19-13.8,13.8s6.19,13.801,13.8,13.801S37.801,31.609,37.801,24S31.609,10.2,24,10.2z"/>
</g>
<path id="data" fill="#03A615" d="M33.509,30.248l-3.406-2.022l0.076-6.181c0,0,0,0,0-0.008c0-0.023,0-0.038,0-0.061l0,0
	c0-0.015-0.008-0.038-0.008-0.053c0-0.008,0-0.008-0.007-0.016c-0.008-0.015-0.008-0.03-0.016-0.045c0-0.008,0-0.008-0.008-0.015
	c-0.008-0.015-0.016-0.038-0.023-0.053c-0.007-0.015-0.021-0.031-0.029-0.046c0-0.007-0.008-0.007-0.008-0.015
	c-0.008-0.015-0.016-0.022-0.031-0.038l-0.007-0.007c-0.015-0.015-0.022-0.023-0.038-0.038l0,0c-0.016-0.015-0.03-0.023-0.046-0.03
	c0,0,0,0-0.007,0l-5.322-3.156v-3.969c0-0.273-0.221-0.494-0.495-0.494l0,0c-0.274,0-0.494,0.221-0.494,0.494v3.961l-5.391,3.026
	c0,0,0,0-0.007,0c-0.015,0.008-0.031,0.023-0.053,0.031c0,0,0,0-0.008,0c-0.015,0.007-0.03,0.022-0.038,0.038l-0.007,0.008
	c-0.008,0.008-0.023,0.023-0.031,0.03c0,0.008-0.007,0.008-0.007,0.016c-0.015,0.015-0.023,0.03-0.03,0.045
	c-0.008,0.015-0.016,0.038-0.031,0.053c0,0.008,0,0.008-0.007,0.015c-0.008,0.015-0.008,0.03-0.015,0.045
	c0,0.008,0,0.008-0.008,0.016c-0.008,0.015-0.008,0.038-0.015,0.053l0,0c0,0.022-0.008,0.038-0.008,0.061c0,0,0,0,0,0.008
	l-0.076,6.227l-3.406,1.908c-0.236,0.137-0.319,0.434-0.19,0.67c0.091,0.159,0.259,0.25,0.434,0.25c0.083,0,0.167-0.022,0.243-0.061
	l3.444-1.932l5.277,3.133c0,0,0,0,0.007,0c0.015,0.008,0.038,0.023,0.053,0.03c0,0,0,0,0.008,0c0.015,0.008,0.03,0.016,0.053,0.016
	c0.007,0,0.007,0,0.015,0.007c0.015,0.008,0.03,0.008,0.045,0.008c0.008,0,0.008,0,0.015,0c0.016,0,0.038,0.008,0.054,0.008h0.007
	l0,0l0,0l0,0c0.023,0,0.038,0,0.061,0c0.007,0,0.007,0,0.015,0c0.015,0,0.03-0.008,0.045-0.008c0.008,0,0.008,0,0.015,0
	c0.015-0.008,0.031-0.008,0.046-0.015h0.007c0.016-0.008,0.038-0.016,0.053-0.022l0,0l5.392-3.027l3.406,2.023
	c0.075,0.045,0.166,0.068,0.25,0.068c0.168,0,0.335-0.084,0.426-0.244C33.82,30.689,33.736,30.393,33.509,30.248z M18.896,28.089
	l0.068-5.33l4.577,2.722l-0.068,5.33L18.896,28.089z M24.111,19.307l4.577,2.722l-4.646,2.607l-4.577-2.722L24.111,19.307z
	 M24.529,25.496l4.646-2.608l-0.069,5.331l-4.646,2.607L24.529,25.496z"/>
</svg>
