<?xml version="1.0" encoding="utf-8"?>
<!-- Generator: Adobe Illustrator 16.0.0, SVG Export Plug-In . SVG Version: 6.00 Build 0)  -->
<!DOCTYPE svg PUBLIC "-//W3C//DTD SVG 1.1//EN" "http://www.w3.org/Graphics/SVG/1.1/DTD/svg11.dtd">
<svg version="1.1" id="Layer_1" xmlns="http://www.w3.org/2000/svg" xmlns:xlink="http://www.w3.org/1999/xlink" x="0px" y="0px"
	 width="248px" height="248px" viewBox="0 0 248 248" enable-background="new 0 0 248 248" xml:space="preserve">
<g>
	<path fill="#FFFFFF" d="M-1099-623H821V817h-1920V-623z"/>
	<g transform="translate(100 100)">
		<circle opacity="0.1" fill="#03A615" enable-background="new    " cx="24" cy="24" r="24"/>
		<path fill="#03A615" d="M24,9C15.716,9,9,15.716,9,24s6.716,15,15,15s15-6.716,15-15S32.284,9,24,9z M24,37.8
			c-7.622,0-13.8-6.178-13.8-13.8S16.378,10.2,24,10.2S37.8,16.378,37.8,24C37.791,31.618,31.618,37.791,24,37.8z M27.113,17.8
			c0.229,0.235,0.225,0.611-0.008,0.842s-0.607,0.235-0.844,0.007l-1.613-1.976v8.603c0,0.332-0.269,0.602-0.602,0.602
			s-0.602-0.27-0.602-0.602v-8.603l-1.613,1.976c-0.236,0.227-0.611,0.224-0.843-0.007c-0.232-0.231-0.235-0.606-0.008-0.841l2.64-3
			c0.235-0.235,0.617-0.235,0.852,0L27.113,17.8L27.113,17.8z M34.339,23.622c-0.005,0.328-0.272,0.59-0.601,0.59
			s-0.596-0.264-0.602-0.592l0.258-2.537l-4.758,4.756c-0.234,0.235-0.615,0.235-0.851,0s-0.235-0.616,0-0.851l0,0l4.756-4.757
			l-2.537,0.257c-0.328-0.006-0.591-0.273-0.592-0.602c0-0.327,0.262-0.594,0.59-0.6l3.988-0.254c0.331,0,0.601,0.27,0.602,0.602
			L34.339,23.622z M17.95,19.24c0.327,0.005,0.59,0.272,0.59,0.6c0,0.329-0.264,0.596-0.592,0.602l-2.538-0.257l4.757,4.756
			c0.235,0.234,0.235,0.616,0,0.852s-0.617,0.235-0.852,0l-4.756-4.757l0.257,2.538c-0.006,0.328-0.274,0.59-0.602,0.591
			c-0.328,0-0.595-0.262-0.6-0.59l-0.254-3.988c0-0.331,0.27-0.6,0.601-0.601L17.95,19.24z M24,33.188
			c-1.553,0-2.813-1.259-2.813-2.813c0-1.553,1.259-2.813,2.813-2.813l0,0c1.553,0,2.813,1.26,2.813,2.813
			C26.813,31.929,25.553,33.188,24,33.188z M24,32.063c0.932,0.022,1.706-0.715,1.729-1.646c0.023-0.933-0.715-1.706-1.646-1.729
			c-0.027-0.001-0.055-0.001-0.082,0c-0.932,0.022-1.669,0.796-1.646,1.729C22.375,31.315,23.1,32.04,24,32.063z"/>
	</g>
</g>
</svg>
