<?xml version="1.0" encoding="utf-8"?>
<!-- Generator: Adobe Illustrator 16.0.0, SVG Export Plug-In . SVG Version: 6.00 Build 0)  -->
<!DOCTYPE svg PUBLIC "-//W3C//DTD SVG 1.1//EN" "http://www.w3.org/Graphics/SVG/1.1/DTD/svg11.dtd">
<svg version="1.1" id="Layer_1" xmlns="http://www.w3.org/2000/svg" xmlns:xlink="http://www.w3.org/1999/xlink" x="0px" y="0px"
	 width="248px" height="248px" viewBox="0 0 248 248" enable-background="new 0 0 248 248" xml:space="preserve">
<g>
	<path fill="#FFFFFF" d="M-424-42h800v768h-800V-42z"/>
	<g transform="translate(100 100)">
		<circle opacity="0.1" fill="#03A615" enable-background="new    " cx="24" cy="24" r="24"/>
		<path fill="#03A615" d="M24,37c-7.18,0-13-5.82-13-13c0-7.18,5.82-13,13-13c7.18,0,13,5.82,13,13C37,31.18,31.18,37,24,37z
			 M24,36.025c6.641,0,12.025-5.385,12.025-12.025c0-6.641-5.385-12.025-12.025-12.025c-6.641,0-12.025,5.384-12.025,12.025
			C11.975,30.641,17.359,36.025,24,36.025z"/>
		<path fill="#03A615" d="M26.961,17.814l0.023,0.011c0.243,0.114,0.349,0.404,0.235,0.647l-5.357,11.488
			c-0.114,0.244-0.403,0.35-0.647,0.235l-0.024-0.011c-0.244-0.113-0.349-0.403-0.235-0.646l5.356-11.489
			C26.427,17.806,26.717,17.701,26.961,17.814z"/>
		<path fill="#03A615" d="M19.28,20.432c0.191,0.19,0.191,0.498,0.001,0.688c0,0-0.001,0.001-0.001,0.001l-3.218,3.217
			c-0.198,0.183-0.507,0.169-0.689-0.029c-0.171-0.187-0.172-0.473,0-0.66l3.218-3.218C18.78,20.242,19.089,20.242,19.28,20.432z
			 M15.368,23.648c0.189-0.19,0.498-0.191,0.688-0.001c0,0,0.001,0.001,0.001,0.001l3.217,3.218c0.182,0.198,0.168,0.507-0.03,0.689
			c-0.187,0.171-0.473,0.171-0.66-0.001l-3.217-3.218C15.178,24.147,15.178,23.838,15.368,23.648
			C15.368,23.648,15.368,23.648,15.368,23.648z M28.723,20.432c-0.191,0.19-0.191,0.498-0.002,0.688c0,0,0.001,0.001,0.002,0.001
			l3.217,3.217c0.197,0.183,0.507,0.169,0.689-0.029c0.171-0.187,0.172-0.473,0-0.66l-3.218-3.218
			C29.221,20.242,28.912,20.242,28.723,20.432C28.723,20.432,28.723,20.432,28.723,20.432z M32.634,23.648
			c-0.189-0.19-0.498-0.191-0.688-0.001c0,0-0.001,0.001-0.002,0.001l-3.217,3.218c-0.182,0.198-0.168,0.507,0.031,0.689
			c0.186,0.171,0.473,0.171,0.659-0.001l3.217-3.218C32.824,24.147,32.824,23.838,32.634,23.648
			C32.635,23.648,32.635,23.648,32.634,23.648z"/>
	</g>
</g>
</svg>
