<?xml version="1.0" encoding="utf-8"?>
<!-- Generator: Adobe Illustrator 16.0.0, SVG Export Plug-In . SVG Version: 6.00 Build 0)  -->
<!DOCTYPE svg PUBLIC "-//W3C//DTD SVG 1.1//EN" "http://www.w3.org/Graphics/SVG/1.1/DTD/svg11.dtd">
<svg version="1.1" id="Layer_1" xmlns="http://www.w3.org/2000/svg" xmlns:xlink="http://www.w3.org/1999/xlink" x="0px" y="0px"
	 width="48px" height="48px" viewBox="0 0 48 48" enable-background="new 0 0 48 48" xml:space="preserve">
<title>Icon/t-Sponsored-Plus-48</title>
<desc>Created with Sketch.</desc>
<g id="Icon_x2F_t-Sponsored-Plus-48">
	<rect id="ico-zone" fill="#D8D8D8" fill-opacity="0" width="48" height="48"/>
	<path id="circle" opacity="0.1" fill="#03A615" enable-background="new    " d="M24,0L24,0c13.255,0,24,10.745,24,24l0,0
		c0,13.255-10.745,24-24,24l0,0C10.745,48,0,37.255,0,24l0,0C0,10.745,10.745,0,24,0z"/>
	<path id="Oval-2" fill="#03A615" d="M37.99,29.423C38.643,27.741,39,25.912,39,24c0-8.284-6.716-15-15-15S9,15.716,9,24
		s6.716,15,15,15c1.912,0,3.741-0.357,5.423-1.01c-0.366-0.241-0.706-0.52-1.014-0.83c-1.386,0.463-2.868,0.715-4.409,0.715
		c-7.663,0-13.875-6.212-13.875-13.875S16.337,10.125,24,10.125S37.875,16.337,37.875,24c0,1.541-0.252,3.024-0.715,4.409
		C37.471,28.717,37.749,29.057,37.99,29.423z M18.938,23.438c-2.071,0-3.75-1.679-3.75-3.75s1.679-3.75,3.75-3.75
		s3.75,1.679,3.75,3.75S21.009,23.438,18.938,23.438z M18.938,22.313c1.45,0,2.625-1.175,2.625-2.625s-1.175-2.625-2.625-2.625
		s-2.625,1.175-2.625,2.625S17.488,22.313,18.938,22.313z M30.107,17.91L30.107,17.91c0.221,0.22,0.221,0.576,0,0.795L18.706,30.107
		c-0.22,0.221-0.576,0.221-0.795,0l0,0c-0.22-0.219-0.22-0.575,0-0.795L29.313,17.91C29.532,17.69,29.889,17.69,30.107,17.91z"/>
	<path id="Combined-Shape" fill="#03A615" d="M26.059,30.559c-0.469-0.627-0.746-1.404-0.746-2.246c0-2.071,1.679-3.75,3.75-3.75
		c1.141,0,2.164,0.51,2.852,1.314c-0.504,0.012-0.993,0.084-1.46,0.209c-0.403-0.252-0.88-0.398-1.392-0.398
		c-1.449,0-2.625,1.176-2.625,2.625c0,0.305,0.052,0.598,0.147,0.869C26.357,29.613,26.18,30.074,26.059,30.559z"/>
	<path id="Combined-Shape_1_" fill="#03A615" d="M33.375,32.438h2.25c0.311,0,0.563,0.252,0.563,0.563s-0.252,0.563-0.563,0.563
		h-2.25v2.25c0,0.311-0.252,0.563-0.563,0.563s-0.563-0.252-0.563-0.563v-2.25H30c-0.311,0-0.563-0.252-0.563-0.563
		s0.252-0.563,0.563-0.563h2.25v-2.25c0-0.311,0.252-0.563,0.563-0.563s0.563,0.252,0.563,0.563V32.438z M32.813,39
		c-3.418,0-6.188-2.771-6.188-6.188s2.77-6.188,6.188-6.188S39,29.396,39,32.813S36.23,39,32.813,39z M32.813,37.875
		c2.796,0,5.063-2.267,5.063-5.063s-2.267-5.063-5.063-5.063s-5.063,2.267-5.063,5.063S30.017,37.875,32.813,37.875z"/>
</g>
</svg>
