<?xml version="1.0" encoding="utf-8"?>
<!-- Generator: Adobe Illustrator 16.0.0, SVG Export Plug-In . SVG Version: 6.00 Build 0)  -->
<!DOCTYPE svg PUBLIC "-//W3C//DTD SVG 1.1//EN" "http://www.w3.org/Graphics/SVG/1.1/DTD/svg11.dtd">
<svg version="1.1" id="Layer_1" xmlns="http://www.w3.org/2000/svg" xmlns:xlink="http://www.w3.org/1999/xlink" x="0px" y="0px"
	 width="48px" height="48px" viewBox="0 0 48 48" enable-background="new 0 0 48 48" xml:space="preserve">
<title>Icon/t-closeorder-48</title>
<desc>Created with Sketch.</desc>
<g id="Icon_x2F_t-closeorder-48">
	<rect id="fon-fon-fon" fill="#D8D8D8" fill-opacity="0" width="48" height="48"/>
	<path id="krug" opacity="0.1" fill="#03A615" enable-background="new    " d="M24,0L24,0c13.255,0,24,10.745,24,24l0,0
		c0,13.255-10.745,24-24,24l0,0C10.745,48,0,37.255,0,24l0,0C0,10.745,10.745,0,24,0z"/>
	<g id="Icon_x2F_80_x2F_Sponsored-Disable-80-error500" transform="translate(9.000000, 9.000000)">
		<rect id="ico-zone" fill="#D8D8D8" fill-opacity="0" width="30" height="30"/>
		<path id="Oval-2" fill="#03A615" d="M28.99,20.423C29.643,18.741,30,16.912,30,15c0-8.284-6.716-15-15-15S0,6.716,0,15
			s6.716,15,15,15c1.912,0,3.741-0.357,5.423-1.01c-0.366-0.241-0.706-0.52-1.014-0.83c-1.386,0.463-2.868,0.715-4.409,0.715
			C7.337,28.875,1.125,22.663,1.125,15S7.337,1.125,15,1.125S28.875,7.337,28.875,15c0,1.541-0.252,3.024-0.715,4.409
			C28.471,19.717,28.749,20.057,28.99,20.423z M9.938,14.438c-2.071,0-3.75-1.679-3.75-3.75s1.679-3.75,3.75-3.75
			s3.75,1.679,3.75,3.75S12.009,14.438,9.938,14.438z M9.938,13.313c1.45,0,2.625-1.175,2.625-2.625s-1.175-2.625-2.625-2.625
			s-2.625,1.175-2.625,2.625S8.488,13.313,9.938,13.313z M21.107,8.91L21.107,8.91c0.221,0.22,0.221,0.576,0,0.795L9.706,21.107
			c-0.22,0.221-0.576,0.221-0.795,0l0,0c-0.22-0.219-0.22-0.575,0-0.795L20.313,8.91C20.532,8.69,20.889,8.69,21.107,8.91z"/>
		<path id="Combined-Shape" fill="#03A615" d="M17.059,21.559c-0.469-0.627-0.746-1.404-0.746-2.246c0-2.071,1.679-3.75,3.75-3.75
			c1.141,0,2.164,0.51,2.852,1.314c-0.504,0.012-0.993,0.084-1.46,0.209c-0.403-0.252-0.88-0.398-1.392-0.398
			c-1.449,0-2.625,1.176-2.625,2.625c0,0.305,0.052,0.598,0.147,0.869C17.357,20.613,17.18,21.074,17.059,21.559z"/>
		<path id="Combined-Shape_1_" fill="#03A615" d="M23.784,22.988l1.591-1.59c0.22-0.221,0.576-0.221,0.796,0
			c0.22,0.219,0.22,0.575,0,0.795l-1.591,1.591l1.591,1.591c0.22,0.22,0.22,0.576,0,0.796s-0.576,0.22-0.796,0l-1.591-1.591
			l-1.591,1.591c-0.22,0.22-0.576,0.22-0.795,0c-0.221-0.22-0.221-0.576,0-0.796l1.59-1.591l-1.59-1.591
			c-0.221-0.22-0.221-0.576,0-0.795c0.219-0.221,0.575-0.221,0.795,0L23.784,22.988z M23.813,30c-3.418,0-6.188-2.771-6.188-6.188
			s2.77-6.188,6.188-6.188S30,20.396,30,23.813S27.23,30,23.813,30z M23.813,28.875c2.796,0,5.063-2.267,5.063-5.063
			s-2.267-5.063-5.063-5.063s-5.063,2.267-5.063,5.063S21.017,28.875,23.813,28.875z"/>
	</g>
</g>
</svg>
