<?xml version="1.0" encoding="utf-8"?>
<!-- Generator: Adobe Illustrator 16.0.0, SVG Export Plug-In . SVG Version: 6.00 Build 0)  -->
<!DOCTYPE svg PUBLIC "-//W3C//DTD SVG 1.1//EN" "http://www.w3.org/Graphics/SVG/1.1/DTD/svg11.dtd">
<svg version="1.1" id="Layer_1" xmlns="http://www.w3.org/2000/svg" xmlns:xlink="http://www.w3.org/1999/xlink" x="0px" y="0px"
	 width="48px" height="48px" viewBox="0 0 48 48" enable-background="new 0 0 48 48" xml:space="preserve">
<g>
	<circle opacity="0.1" fill="#03A615" enable-background="new    " cx="24" cy="24" r="24"/>
	<path fill="#03A615" d="M32.311,16.197c1.229,1.232,1.42,3.162,0.453,4.611c-0.965,1.449-2.818,2.013-4.427,1.346
		c-1.863-0.773-2.747-2.911-1.974-4.774c0.565-1.362,1.895-2.251,3.369-2.253C30.699,15.127,31.627,15.512,32.311,16.197z
		 M27.128,18.779c-0.548,1.33,0.087,2.851,1.416,3.398c1.329,0.547,2.851-0.086,3.397-1.416c0.129-0.312,0.195-0.646,0.197-0.984
		c0.475-1.149,0.074-2.474-0.959-3.167c-1.033-0.691-2.411-0.555-3.289,0.325C27.4,17.423,27.127,18.087,27.128,18.779z
		 M29.363,18.41c-0.193,0.212-0.18,0.542,0.033,0.737c0.199,0.183,0.505,0.183,0.705,0c0.203-0.203,0.203-0.533,0-0.737
		c-0.203-0.204-0.533-0.204-0.736-0.001l0,0H29.363z M34.52,13.983c-2.643-2.644-6.93-2.645-9.574,0v0L13.896,25.051
		c-0.195,0.213-0.181,0.543,0.032,0.738c0.199,0.182,0.505,0.183,0.705,0L25.68,14.72c2.232-2.237,5.855-2.242,8.092-0.011
		c0.004,0.004,0.008,0.007,0.012,0.011c2.238,2.243,2.238,5.875,0,8.117l-6.631,6.64c-0.194,0.213-0.18,0.543,0.033,0.738
		c0.199,0.183,0.505,0.183,0.705,0l6.629-6.64C37.16,20.922,37.16,16.635,34.52,13.983L34.52,13.983z M18.282,25.338l-6.63,6.641
		c-0.199,0.208-0.191,0.539,0.017,0.737c0.201,0.192,0.518,0.192,0.72,0.001l6.63-6.641c0.195-0.213,0.18-0.543-0.032-0.738
		C18.788,25.156,18.481,25.155,18.282,25.338z M25.193,22.588l-7.365,7.378c-0.195,0.213-0.181,0.543,0.032,0.737
		c0.2,0.184,0.505,0.184,0.705,0.001l7.367-7.379c0.191-0.215,0.172-0.545-0.043-0.737C25.69,22.412,25.393,22.412,25.193,22.588z
		 M16.86,35.109c-0.192,0.215-0.173,0.545,0.042,0.736c0.198,0.177,0.497,0.178,0.695,0.002l8.101-8.117
		c0.217-0.191,0.236-0.521,0.044-0.736c-0.191-0.216-0.521-0.234-0.737-0.043c-0.014,0.013-0.029,0.027-0.042,0.042L16.86,35.109z
		 M22.983,34.191c-0.195,0.213-0.18,0.543,0.032,0.738c0.199,0.183,0.505,0.183,0.705,0l2.209-2.213
		c0.195-0.213,0.181-0.543-0.031-0.737c-0.199-0.183-0.506-0.183-0.705-0.001L22.983,34.191z M20.722,24.369l1.473-1.476
		c0.195-0.212,0.181-0.543-0.032-0.738c-0.2-0.183-0.505-0.183-0.705,0l-1.473,1.476c-0.195,0.213-0.18,0.543,0.032,0.738
		C20.216,24.551,20.522,24.551,20.722,24.369z"/>
</g>
</svg>
