<?xml version="1.0" encoding="utf-8"?>
<!-- Generator: Adobe Illustrator 16.0.0, SVG Export Plug-In . SVG Version: 6.00 Build 0)  -->
<!DOCTYPE svg PUBLIC "-//W3C//DTD SVG 1.1//EN" "http://www.w3.org/Graphics/SVG/1.1/DTD/svg11.dtd">
<svg version="1.1" id="Layer_1" xmlns="http://www.w3.org/2000/svg" xmlns:xlink="http://www.w3.org/1999/xlink" x="0px" y="0px"
	 width="48px" height="48px" viewBox="0 0 48 48" enable-background="new 0 0 48 48" xml:space="preserve">
<g>
	<circle opacity="0.1" fill="#03A615" enable-background="new    " cx="24" cy="24" r="24"/>
	<g>
		<path fill="#03A615" d="M20.323,33.88l-0.002,0.001L20.323,33.88z M19.672,34.836c-0.04,0.134-0.231,0.596-0.232,0.596
			c-0.073,0.187-0.128,0.381-0.164,0.578l-0.098,0.547l-1.069-0.201l0.099-0.547c0.048-0.268,0.122-0.529,0.22-0.783
			c0.02-0.049,0.184-0.445,0.205-0.516c0.064-0.213,0.27-0.56,0.523-0.917c0.1-0.143,0.207-0.28,0.32-0.413
			c0.052-0.061,0.109-0.117,0.17-0.17c0.048-0.04,0.102-0.074,0.159-0.1c0.156-0.075,0.338-0.07,0.49,0.013
			c0.122,0.062,0.219,0.163,0.275,0.287c0.028,0.05,0.055,0.106,0.086,0.181c0.028,0.063,0.137,0.33,0.164,0.39
			c0.073,0.17,0.13,0.288,0.173,0.35c0.03,0.027,0.146,0.085,0.287,0.142c-0.06-0.272-0.08-0.398-0.08-0.553v-1.396
			c0-0.606,0.155-1.447,0.421-1.9c0.039-0.065,0.074-0.139,0.125-0.255c0.298-0.686,0.421-0.91,0.835-1.391
			c0.818-0.948,1.494-1.627,1.827-1.627c0.189,0,0.337,0.091,0.435,0.217c0.042,0.053,0.073,0.111,0.095,0.175
			c0.021,0.058,0.033,0.112,0.043,0.179c0.013,0.078,0.021,0.174,0.033,0.317l0.031,0.483c0.016,0.211,0.03,0.392,0.048,0.565
			c0.011,0.093,0.019,0.183,0.028,0.287l0.021,0.244c0.022,0.241,0.039,0.375,0.067,0.504c0.031,0.144,0.078,0.282,0.151,0.446
			c0.129,0.279,0.354,0.587,0.711,0.99c0.06,0.068,0.123,0.139,0.207,0.229l0.203,0.224c0.117,0.129,0.201,0.221,0.485,0.525
			c0.476,0.51,0.675,0.732,0.815,0.913c-0.01-0.011,0.097,0.126,0.128,0.167c0.054,0.07,0.101,0.131,0.144,0.193
			c0.23,0.32,0.398,0.619,0.512,0.949c0.127,0.367,0.217,0.848,0.274,1.447l0.054,0.553l-1.08,0.11l-0.053-0.554
			c-0.051-0.52-0.125-0.916-0.219-1.186c-0.088-0.237-0.21-0.461-0.363-0.663c-0.041-0.056-0.082-0.112-0.125-0.167
			c-0.041-0.055-0.083-0.108-0.125-0.162c-0.109-0.141-0.306-0.361-0.742-0.828c-0.313-0.332-0.619-0.668-0.92-1.008
			c-0.425-0.478-0.705-0.861-0.891-1.266c-0.1-0.215-0.176-0.441-0.227-0.673c-0.044-0.213-0.073-0.428-0.089-0.644l-0.022-0.244
			c-0.008-0.101-0.017-0.185-0.026-0.271c-0.011-0.11-0.022-0.222-0.031-0.34c-0.2,0.212-0.405,0.437-0.587,0.647
			c-0.32,0.372-0.4,0.519-0.657,1.107c-0.067,0.154-0.12,0.262-0.186,0.375c-0.144,0.245-0.266,0.904-0.266,1.327v1.396
			c0,0.051,0.021,0.164,0.078,0.415c0.059,0.259,0.08,0.364,0.096,0.495c0.042,0.346,0.012,0.584-0.276,0.78
			c-0.408,0.276-1.49-0.078-1.901-0.435c-0.069-0.063-0.13-0.133-0.181-0.209c-0.072-0.109-0.135-0.223-0.189-0.342
			C19.822,34.555,19.742,34.692,19.672,34.836z M20.992,34.132l-0.006-0.005l0.002,0.002L20.992,34.132L20.992,34.132z"/>
		<path fill="#03A615" d="M29.995,21.141c-0.001,0.002-0.002,0.004-0.003,0.006L29.995,21.141z M29.961,21.334
			c0.003-0.14,0.003-0.14,0.143-0.378c0.268-0.188,0.268-0.188,0.481-0.177c0.212,0.07,0.212,0.07,0.265,0.115
			c0.041,0.033,0.08,0.07,0.114,0.11c0.052,0.057,0.122,0.141,0.214,0.255c0.172,0.217,0.426,0.55,0.78,1.026
			c0.487,0.73,0.866,1.532,1.136,2.404c0.192,0.621,0.282,0.957,0.346,1.304c0.041,0.223,0.07,0.446,0.101,0.757
			c0.011,0.109,0.022,0.23,0.036,0.393l0.041,0.48c0.089,1.021,0.045,1.672-0.12,2.713c-0.024,0.154-0.049,0.311-0.072,0.465
			c-0.114,0.801-0.603,2.08-1.067,2.963c-0.351,0.666-1.18,1.625-1.987,2.364c-0.397,0.363-0.97,0.776-1.593,1.142
			c-0.688,0.411-1.424,0.736-2.192,0.97c-1.401,0.405-2.52,0.503-3.844,0.389c-1.304-0.112-2.431-0.403-3.48-0.946
			c-0.955-0.494-2.077-1.434-2.927-2.326c-0.64-0.672-0.945-1.072-1.436-1.912c-0.507-0.864-0.966-1.866-1.201-2.617
			c-0.2-0.639-0.357-1.96-0.357-2.583c0-0.718,0.043-1.75,0.12-2.24c0.109-0.678,0.506-1.843,0.926-2.66
			c0.373-0.726,0.942-1.564,1.468-2.234c0.079-0.1,0.159-0.199,0.242-0.296c0.128-0.15,0.261-0.299,0.47-0.526
			c0.214-0.232,0.428-0.465,0.642-0.697c0.231-0.254,0.466-0.504,0.705-0.751l0.4-0.418c0.275-0.29,0.428-0.458,0.494-0.545
			l0.106-0.14l0.14-0.187c0.12-0.16,0.23-0.314,0.333-0.465c0.076-0.11,0.146-0.217,0.21-0.318c0.136-0.217,0.238-0.404,0.3-0.55
			c0.042-0.103,0.09-0.215,0.157-0.37l0.172-0.4l0.034-0.081c0.23-0.537,0.366-0.88,0.43-1.092c0.15-0.496,0.257-1.11,0.348-2.084
			c0.02-0.218,0.036-0.462,0.049-0.729c0.028-0.603,0.036-1.225,0.032-1.793l-0.001-0.113c0.065-0.337,0.065-0.337,0.403-0.538
			c0.222-0.021,0.222-0.021,0.304,0.006c0.097,0.039,0.097,0.039,0.133,0.061c0.031,0.02,0.062,0.041,0.099,0.07
			c0.055,0.041,0.128,0.101,0.216,0.176c0.18,0.154,0.416,0.364,0.66,0.591c0.618,0.573,1.191,1.151,1.58,1.614
			c0.896,1.06,1.234,1.544,1.703,2.45c0.436,0.838,0.953,2.296,1.189,3.244c0.178,0.71,0.271,2.068,0.271,3.301
			c0,0.554-0.075,1.46-0.194,2.164c-0.057,0.345-0.127,0.688-0.209,1.027l-0.025,0.107c0.131-0.037,0.27-0.086,0.393-0.14
			c0.5-0.221,0.721-0.386,1.18-0.92c0.24-0.274,0.537-0.669,0.813-1.064c0.126-0.182,0.246-0.367,0.361-0.556
			C29.961,21.205,29.961,21.207,29.961,21.334z M22.171,11.514c-0.014,0.282-0.031,0.544-0.053,0.78
			c-0.097,1.044-0.218,1.73-0.391,2.306c-0.08,0.267-0.226,0.632-0.472,1.21l-0.036,0.082l-0.172,0.4l-0.153,0.36
			c-0.089,0.213-0.219,0.45-0.385,0.715c-0.072,0.114-0.15,0.232-0.233,0.355c-0.162,0.235-0.33,0.466-0.504,0.693l-0.106,0.14
			c-0.181,0.223-0.373,0.436-0.575,0.64l-0.4,0.42c-0.353,0.369-0.701,0.742-1.044,1.12l-0.29,0.314
			c-0.2,0.217-0.325,0.357-0.442,0.494c-0.073,0.085-0.145,0.173-0.214,0.261c-0.486,0.62-1.018,1.404-1.354,2.057
			c-0.367,0.714-0.726,1.766-0.814,2.321c-0.066,0.413-0.106,1.402-0.106,2.062c0,0.518,0.143,1.729,0.304,2.243
			c0.209,0.666,0.632,1.591,1.098,2.387c0.448,0.763,0.7,1.096,1.283,1.707c0.774,0.813,1.812,1.682,2.64,2.109
			c0.913,0.475,1.907,0.729,3.08,0.83c1.198,0.104,2.186,0.02,3.456-0.35c0.683-0.208,1.337-0.498,1.95-0.865
			c0.56-0.328,1.07-0.697,1.408-1.006c0.723-0.66,1.476-1.533,1.754-2.063c0.41-0.779,0.857-1.949,0.951-2.596
			c0.021-0.162,0.047-0.322,0.073-0.482c0.152-0.957,0.19-1.521,0.11-2.438l-0.04-0.479l-0.035-0.38
			c-0.019-0.223-0.048-0.443-0.087-0.662c-0.055-0.293-0.135-0.594-0.314-1.176c-0.225-0.739-0.555-1.442-0.98-2.087
			c-0.168-0.224-0.336-0.448-0.506-0.67c-0.278,0.417-0.633,0.885-0.939,1.239c-0.566,0.654-0.917,0.916-1.563,1.201
			c-0.311,0.138-0.638,0.234-0.973,0.285c-0.576,0.075-1.051-0.054-1.051-0.69c0-0.147,0.252-1.216,0.253-1.223
			c0.043-0.199,0.08-0.388,0.11-0.574c0.109-0.64,0.18-1.484,0.18-1.975c0-1.145-0.09-2.431-0.238-3.026
			c-0.215-0.869-0.705-2.246-1.096-2.998c-0.427-0.824-0.72-1.243-1.566-2.246c-0.355-0.421-0.9-0.97-1.487-1.516
			C22.191,10.995,22.183,11.256,22.171,11.514L22.171,11.514z M31.047,21.338c-0.015,0.105-0.049,0.208-0.102,0.3
			C31.043,21.468,31.045,21.454,31.047,21.338z M31.047,21.334L31.047,21.334z"/>
	</g>
</g>
</svg>
